<?xml version="1.0" encoding="UTF-8" standalone="no"?>
<!-- Created with Inkscape (http://www.inkscape.org/) -->

<svg
   xmlns:dc="http://purl.org/dc/elements/1.1/"
   xmlns:cc="http://creativecommons.org/ns#"
   xmlns:rdf="http://www.w3.org/1999/02/22-rdf-syntax-ns#"
   xmlns:svg="http://www.w3.org/2000/svg"
   xmlns="http://www.w3.org/2000/svg"
   xmlns:xlink="http://www.w3.org/1999/xlink"
   xmlns:sodipodi="http://sodipodi.sourceforge.net/DTD/sodipodi-0.dtd"
   xmlns:inkscape="http://www.inkscape.org/namespaces/inkscape"
   width="16"
   height="16"
   id="svg2"
   version="1.1"
   inkscape:version="0.48.4 r9939"
   sodipodi:docname="progress_dot_on.svg"
   inkscape:export-filename="/home/jasbur/Projects/compensato/live_prep/art/plymouth_theme/progress_dot_on.png"
   inkscape:export-xdpi="90"
   inkscape:export-ydpi="90">
  <defs
     id="defs4">
    <linearGradient
       id="linearGradient3847">
      <stop
         style="stop-color:#f4d88c;stop-opacity:1;"
         offset="0"
         id="stop3849" />
      <stop
         style="stop-color:#f3d687;stop-opacity:1;"
         offset="1"
         id="stop3851" />
    </linearGradient>
    <inkscape:path-effect
       effect="spiro"
       id="path-effect3837"
       is_visible="true" />
    <linearGradient
       id="linearGradient3768">
      <stop
         style="stop-color:#ecc74c;stop-opacity:1;"
         offset="0"
         id="stop3770" />
      <stop
         style="stop-color:#e2b318;stop-opacity:1;"
         offset="1"
         id="stop3772" />
    </linearGradient>
    <linearGradient
       id="linearGradient3760">
      <stop
         style="stop-color:#cfd3ed;stop-opacity:1;"
         offset="0"
         id="stop3762" />
      <stop
         style="stop-color:#e9ebf7;stop-opacity:1;"
         offset="1"
         id="stop3764" />
    </linearGradient>
    <linearGradient
       inkscape:collect="always"
       xlink:href="#linearGradient3760"
       id="linearGradient3766"
       x1="8.2067699"
       y1="1038.2826"
       x2="8.2067699"
       y2="1050.5944"
       gradientUnits="userSpaceOnUse" />
    <linearGradient
       inkscape:collect="always"
       xlink:href="#linearGradient3768"
       id="linearGradient3774"
       x1="8.2067699"
       y1="1038.2826"
       x2="8.2067699"
       y2="1050.5944"
       gradientUnits="userSpaceOnUse" />
    <linearGradient
       inkscape:collect="always"
       xlink:href="#linearGradient3768"
       id="linearGradient3782"
       x1="8.1470976"
       y1="1038.0933"
       x2="8.1470976"
       y2="1050.4736"
       gradientUnits="userSpaceOnUse" />
    <linearGradient
       inkscape:collect="always"
       xlink:href="#linearGradient3847"
       id="linearGradient3853"
       x1="-4.3610368"
       y1="0.56662285"
       x2="-16.484617"
       y2="12.057108"
       gradientUnits="userSpaceOnUse" />
    <linearGradient
       inkscape:collect="always"
       xlink:href="#linearGradient3847"
       id="linearGradient3863"
       gradientUnits="userSpaceOnUse"
       x1="-4.3610368"
       y1="0.56662285"
       x2="-16.484617"
       y2="12.057108" />
    <linearGradient
       inkscape:collect="always"
       xlink:href="#linearGradient3847"
       id="linearGradient3879"
       gradientUnits="userSpaceOnUse"
       x1="-4.3610368"
       y1="0.56662285"
       x2="-16.484617"
       y2="12.057108" />
  </defs>
  <sodipodi:namedview
     id="base"
     pagecolor="#ffffff"
     bordercolor="#666666"
     borderopacity="1.0"
     inkscape:pageopacity="0.0"
     inkscape:pageshadow="2"
     inkscape:zoom="15.839192"
     inkscape:cx="20.319789"
     inkscape:cy="8.5858585"
     inkscape:document-units="px"
     inkscape:current-layer="layer1"
     showgrid="false"
     inkscape:window-width="1317"
     inkscape:window-height="744"
     inkscape:window-x="49"
     inkscape:window-y="24"
     inkscape:window-maximized="1" />
  <metadata
     id="metadata7">
    <rdf:RDF>
      <cc:Work
         rdf:about="">
        <dc:format>image/svg+xml</dc:format>
        <dc:type
           rdf:resource="http://purl.org/dc/dcmitype/StillImage" />
        <dc:title></dc:title>
      </cc:Work>
    </rdf:RDF>
  </metadata>
  <g
     inkscape:label="Layer 1"
     inkscape:groupmode="layer"
     id="layer1"
     transform="translate(0,-1036.3622)">
    <rect
       style="fill:url(#linearGradient3766);fill-opacity:1;stroke:url(#linearGradient3774);stroke-width:1.33836031000000011;stroke-linejoin:round;stroke-miterlimit:4;stroke-opacity:1;stroke-dasharray:none"
       id="rect3023"
       width="13.808132"
       height="13.551237"
       x="1.1793327"
       y="1037.6316" />
    <rect
       style="fill:url(#linearGradient3782);fill-opacity:1;stroke:none"
       id="rect3793"
       width="1.0172533"
       height="13.743896"
       x="7.6980553"
       y="1037.8564" />
    <rect
       y="-15.078629"
       x="1043.9629"
       height="13.743896"
       width="1.0172533"
       id="rect3795"
       style="fill:#ecbb34;fill-opacity:1;stroke:none"
       transform="matrix(0,1,-1,0,0,0)" />
    <rect
       style="fill:#eaeffd;fill-opacity:1;stroke:none"
       id="rect3797"
       width="0.48104161"
       height="4.3293743"
       x="788.21857"
       y="676.58264"
       transform="matrix(0.65516919,0.75548218,-0.75548218,0.65516919,0,0)"
       rx="1.0172533"
       ry="1.0172533" />
    <rect
       ry="1.254585"
       rx="1.254585"
       transform="matrix(0.65516919,0.75548218,-0.75548218,0.65516919,0,0)"
       y="675.78662"
       x="790.1795"
       height="5.3394456"
       width="0.59327167"
       id="rect3801"
       style="fill:#eaeffd;fill-opacity:1;stroke:none" />
    <rect
       ry="1.0172533"
       rx="1.0172533"
       transform="matrix(0.65516919,0.75548218,-0.75548218,0.65516919,0,0)"
       y="671.16211"
       x="795.29968"
       height="4.3293743"
       width="0.48104161"
       id="rect3803"
       style="fill:#eaeffd;fill-opacity:1;stroke:none" />
    <rect
       style="fill:#eaeffd;fill-opacity:1;stroke:none"
       id="rect3805"
       width="0.59327167"
       height="5.3394456"
       x="793.77606"
       y="680.26575"
       transform="matrix(0.65516919,0.75548218,-0.75548218,0.65516919,0,0)"
       rx="1.254585"
       ry="1.254585" />
    <rect
       ry="1.0172533"
       rx="1.0172533"
       transform="matrix(0.65516919,0.75548218,-0.75548218,0.65516919,0,0)"
       y="675.74432"
       x="797.44666"
       height="4.3293743"
       width="0.48104161"
       id="rect3807"
       style="fill:#eaeffd;fill-opacity:1;stroke:none" />
    <rect
       style="fill:#eaeffd;fill-opacity:1;stroke:none"
       id="rect3809"
       width="0.59327167"
       height="5.3394456"
       x="798.40454"
       y="674.92859"
       transform="matrix(0.65516919,0.75548218,-0.75548218,0.65516919,0,0)"
       rx="1.254585"
       ry="1.254585" />
    <rect
       ry="0.53014565"
       rx="0.53014565"
       transform="matrix(0.65516919,0.75548218,-0.75548218,0.65516919,0,0)"
       y="676.32062"
       x="801.08575"
       height="2.2562706"
       width="0.25069675"
       id="rect3811"
       style="fill:#eaeffd;fill-opacity:1;stroke:none" />
    <g
       id="g3855"
       transform="matrix(1.0079091,0,0,1.0079091,18.452866,-6.6659878)">
      <path
         id="rect3818"
         transform="translate(0,1036.3622)"
         d="m -6,-1.1875 -12.125,11.4375 3.5,3.6875 L -2.53125,2.5 -3.6875,1.25 C -3.697726,1.260704 -3.708239,1.270642 -3.71875,1.28125 -4.1850421,1.7518596 -4.7334452,1.920646 -4.96875,1.6875 -5.2040548,1.454354 -5.028792,0.90810958 -4.5625,0.4375 -4.546256,0.4211058 -4.516474,0.421963 -4.5,0.40625 L -6,-1.1875 z"
         style="fill:url(#linearGradient3863);fill-opacity:1;stroke:#b4b4b4;stroke-width:0.1;stroke-miterlimit:4;stroke-opacity:1;stroke-dasharray:none"
         inkscape:connector-curvature="0" />
      <rect
         style="fill:#f2d27c;fill-opacity:1;stroke:none"
         id="rect3841"
         width="0.40161955"
         height="16.597067"
         x="767.25482"
         y="686.8103"
         transform="matrix(0.65907183,0.75208,-0.74179679,0.67062472,0,0)" />
      <path
         transform="matrix(0.52230644,0.21602475,-0.42997234,1.0395907,-2.7586573,1040.5399)"
         d="m -11.174813,7.5399723 c 0,0.4184189 -0.325062,0.7576144 -0.726047,0.7576144 -0.400985,0 -0.726047,-0.3391955 -0.726047,-0.7576144 0,-0.4184189 0.325062,-0.7576144 0.726047,-0.7576144 0.400985,0 0.726047,0.3391955 0.726047,0.7576144 z"
         sodipodi:ry="0.75761443"
         sodipodi:rx="0.72604716"
         sodipodi:cy="7.5399723"
         sodipodi:cx="-11.90086"
         id="path3823"
         style="fill:#bd8f12;fill-opacity:1;stroke:#b4b4b4;stroke-width:0.12540533;stroke-miterlimit:4;stroke-opacity:1;stroke-dasharray:none"
         sodipodi:type="arc" />
      <rect
         transform="matrix(0.64133306,0.76726261,-0.72579072,0.68791557,0,0)"
         y="669.78442"
         x="749.74677"
         height="16.537304"
         width="0.40236837"
         id="rect3839"
         style="fill:#f2d27c;fill-opacity:1;stroke:none" />
      <rect
         style="fill:#f2d27c;fill-opacity:1;stroke:none"
         id="rect3843"
         width="0.38185954"
         height="15.32342"
         x="808.19916"
         y="554.25549"
         transform="matrix(0.52524693,0.85094986,-0.77498685,0.63197736,0,0)" />
      <rect
         style="fill:#f2d27c;fill-opacity:1;stroke:none"
         id="rect3845"
         width="0.40236837"
         height="16.537304"
         x="752.92261"
         y="669.5462"
         transform="matrix(0.64133306,0.76726261,-0.72579072,0.68791557,0,0)" />
    </g>
    <g
       transform="matrix(0.27680669,-0.79921165,0.79921165,0.27680669,-822.85325,747.40869)"
       id="g3865">
      <path
         inkscape:connector-curvature="0"
         style="fill:url(#linearGradient3879);fill-opacity:1;stroke:#b4b4b4;stroke-width:0.1;stroke-miterlimit:4;stroke-opacity:1;stroke-dasharray:none"
         d="m -6,-1.1875 -12.125,11.4375 3.5,3.6875 L -2.53125,2.5 -3.6875,1.25 C -3.697726,1.260704 -3.708239,1.270642 -3.71875,1.28125 -4.1850421,1.7518596 -4.7334452,1.920646 -4.96875,1.6875 -5.2040548,1.454354 -5.028792,0.90810958 -4.5625,0.4375 -4.546256,0.4211058 -4.516474,0.421963 -4.5,0.40625 L -6,-1.1875 z"
         transform="translate(0,1036.3622)"
         id="path3867" />
      <rect
         transform="matrix(0.65907183,0.75208,-0.74179679,0.67062472,0,0)"
         y="686.8103"
         x="767.25482"
         height="16.597067"
         width="0.40161955"
         id="rect3869"
         style="fill:#f2d27c;fill-opacity:1;stroke:none" />
      <path
         sodipodi:type="arc"
         style="fill:#bd8f12;fill-opacity:1;stroke:#b4b4b4;stroke-width:0.12540533;stroke-miterlimit:4;stroke-opacity:1;stroke-dasharray:none"
         id="path3871"
         sodipodi:cx="-11.90086"
         sodipodi:cy="7.5399723"
         sodipodi:rx="0.72604716"
         sodipodi:ry="0.75761443"
         d="m -11.174813,7.5399723 c 0,0.4184189 -0.325062,0.7576144 -0.726047,0.7576144 -0.400985,0 -0.726047,-0.3391955 -0.726047,-0.7576144 0,-0.4184189 0.325062,-0.7576144 0.726047,-0.7576144 0.400985,0 0.726047,0.3391955 0.726047,0.7576144 z"
         transform="matrix(0.52230644,0.21602475,-0.42997234,1.0395907,-2.7586573,1040.5399)" />
      <rect
         style="fill:#f2d27c;fill-opacity:1;stroke:none"
         id="rect3873"
         width="0.40236837"
         height="16.537304"
         x="749.74677"
         y="669.78442"
         transform="matrix(0.64133306,0.76726261,-0.72579072,0.68791557,0,0)" />
      <rect
         transform="matrix(0.52524693,0.85094986,-0.77498685,0.63197736,0,0)"
         y="554.25549"
         x="808.19916"
         height="15.32342"
         width="0.38185954"
         id="rect3875"
         style="fill:#f2d27c;fill-opacity:1;stroke:none" />
      <rect
         transform="matrix(0.64133306,0.76726261,-0.72579072,0.68791557,0,0)"
         y="669.5462"
         x="752.92261"
         height="16.537304"
         width="0.40236837"
         id="rect3877"
         style="fill:#f2d27c;fill-opacity:1;stroke:none" />
    </g>
  </g>
</svg>
